<?xml version="1.0" standalone="no"?>
<!DOCTYPE svg PUBLIC "-//W3C//DTD SVG 20010904//EN"
 "http://www.w3.org/TR/2001/REC-SVG-20010904/DTD/svg10.dtd">
<svg version="1.0" xmlns="http://www.w3.org/2000/svg"
 width="90.000000pt" height="90.000000pt" viewBox="0 0 90.000000 90.000000"
 preserveAspectRatio="xMidYMid meet">
<metadata>
Created by potrace 1.14, written by Peter Selinger 2001-2017
</metadata>
<g transform="translate(0.000000,90.000000) scale(0.100000,-0.100000)"
fill="#000000" stroke="none">
<path d="M190 600 c-30 -17 -70 -38 -87 -47 -18 -9 -33 -23 -33 -30 0 -7 26
-25 57 -38 l57 -25 70 41 c39 23 83 49 98 58 16 9 28 19 28 22 0 5 -117 49
-130 49 -3 0 -30 -14 -60 -30z"/>
<path d="M442 568 c-34 -22 -60 -43 -57 -48 3 -4 38 -20 80 -35 l74 -27 66 47
c37 26 63 51 58 55 -10 9 -133 50 -147 49 -6 0 -39 -18 -74 -41z"/>
<path d="M270 457 c-19 -12 -36 -25 -38 -29 -2 -4 -9 -8 -15 -8 -13 -1 -57
-34 -57 -43 0 -6 111 -60 142 -71 16 -5 87 37 150 89 l27 23 -71 31 c-82 36
-91 37 -138 8z"/>
<path d="M583 426 c-38 -29 -79 -59 -91 -65 -30 -16 -28 -24 11 -40 17 -8 50
-22 72 -31 86 -38 95 -36 196 47 72 59 73 61 61 79 -7 12 -143 64 -166 64 -7
0 -44 -24 -83 -54z"/>
</g>
</svg>
