<svg width="33" height="32" viewBox="0 0 33 32" fill="none" xmlns="http://www.w3.org/2000/svg">
<path d="M20.39 16C20.39 15.296 20.2087 14.6347 19.846 14.016C19.4833 13.3973 18.9927 12.9067 18.374 12.544C17.7553 12.1813 17.094 12 16.39 12V9.312C17.606 9.312 18.726 9.61067 19.75 10.208C20.774 10.8053 21.5847 11.616 22.182 12.64C22.7793 13.664 23.078 14.784 23.078 16H20.39ZM25.702 16C25.702 14.2933 25.286 12.7253 24.454 11.296C23.622 9.888 22.502 8.768 21.094 7.936C19.6647 7.104 18.0967 6.688 16.39 6.688V4C18.566 4 20.582 4.544 22.438 5.632C24.2513 6.69867 25.6913 8.13867 26.758 9.952C27.846 11.808 28.39 13.824 28.39 16H25.702ZM27.078 20.672C27.4407 20.672 27.75 20.8 28.006 21.056C28.262 21.312 28.39 21.6213 28.39 21.984V26.688C28.39 27.0507 28.262 27.36 28.006 27.616C27.75 27.872 27.4407 28 27.078 28C24.006 28 21.062 27.4027 18.246 26.208C15.5367 25.056 13.1367 23.4347 11.046 21.344C8.95535 19.2533 7.33401 16.8533 6.18201 14.144C4.98735 11.328 4.39001 8.384 4.39001 5.312C4.39001 4.94933 4.51801 4.64 4.77401 4.384C5.03001 4.128 5.33935 4 5.70201 4H10.406C10.7687 4 11.078 4.128 11.334 4.384C11.59 4.64 11.718 4.94933 11.718 5.312C11.718 7.06133 11.9633 8.64 12.454 10.048C12.518 10.2827 12.5287 10.528 12.486 10.784C12.4433 11.04 12.326 11.2533 12.134 11.424L9.19001 14.368C10.15 16.2453 11.3873 17.9413 12.902 19.456C14.4167 20.9707 16.1233 22.2187 18.022 23.2L20.966 20.256C21.1367 20.064 21.35 19.9467 21.606 19.904C21.862 19.8613 22.1073 19.872 22.342 19.936C23.75 20.4267 25.3287 20.672 27.078 20.672Z" fill="white"/>
</svg>
